<svg width="180" height="180" viewBox="0 0 180 180" fill="none" xmlns="http://www.w3.org/2000/svg">
  <rect x="16" y="16" width="148" height="148" rx="32" fill="url(#grad1)"/>
  <rect x="16" y="16" width="148" height="148" rx="32" stroke="url(#grad2)" stroke-width="2"/>
  <path d="M52 124L90 48L128 124H112.5L102.5 103H77.5L67.5 124H52Z" fill="white" fill-opacity="0.9"/>
  <path d="M90 64L78.5 87.5H101.5L90 64Z" fill="url(#grad3)"/>
  <path d="M52 124L90 48L128 124H112.5L102.5 103H77.5L67.5 124H52Z" stroke="url(#grad2)" stroke-width="3" stroke-linejoin="round"/>
  <circle cx="138" cy="52" r="10" fill="url(#grad2)" fill-opacity="0.8"/>
  <circle cx="138" cy="52" r="14" stroke="url(#grad1)" stroke-opacity="0.6" stroke-width="2"/>
  <defs>
    <linearGradient id="grad1" x1="30" y1="30" x2="146" y2="146" gradientUnits="userSpaceOnUse">
      <stop stop-color="#1CC8D4"/>
      <stop offset="1" stop-color="#1A9CFF"/>
    </linearGradient>
    <linearGradient id="grad2" x1="40" y1="40" x2="140" y2="140" gradientUnits="userSpaceOnUse">
      <stop stop-color="#5CFFF0"/>
      <stop offset="1" stop-color="#2EA7FF"/>
    </linearGradient>
    <linearGradient id="grad3" x1="80" y1="70" x2="102" y2="92" gradientUnits="userSpaceOnUse">
      <stop stop-color="#0B2235"/>
      <stop offset="1" stop-color="#1F8BEA"/>
    </linearGradient>
  </defs>
</svg>
